<svg width="173" height="48" viewBox="0 0 173 48" fill="none" xmlns="http://www.w3.org/2000/svg">
<g clip-path="url(#clip0_9_2)">
<mask id="mask0_9_2" style="mask-type:luminance" maskUnits="userSpaceOnUse" x="0" y="0" width="41" height="48">
<path d="M40.9337 0.297997H0V47.6935H40.9337V0.297997Z" fill="white"/>
</mask>
<g mask="url(#mask0_9_2)">
<path d="M3.85062 40.1244H0.00285339V11.1308L21.6187 0L40.9309 8.77242V18.7028L25.1559 26.4705L11.1481 21.4074L12.4495 17.7691L24.9273 22.2787L37.0832 16.2904V11.2671L21.7231 4.29114L3.85062 13.4949V40.1244Z" fill="#642EC1"/>
<path d="M25.1559 48L11.1481 42.9397L12.4495 39.3014L24.9272 43.8082L38.1615 37.2892L39.8525 40.763L25.1559 48Z" fill="#642EC1"/>
<path d="M25.1559 37.2353L11.1481 32.175L12.4495 28.5338L24.9272 33.0435L38.1615 26.5244L39.8525 29.9982L25.1559 37.2353Z" fill="#642EC1"/>
</g>
<path d="M76.9723 16.0804C75.3378 15.2176 73.2968 14.7863 70.8549 14.7863C67.2386 14.7863 64.4805 15.7569 62.5806 17.7009C60.6807 19.6422 59.7322 22.4235 59.7322 26.0448V29.232C59.7322 32.8845 60.7485 35.6743 62.7782 37.5985C64.8108 39.5256 67.9048 40.4877 72.0688 40.4877C73.884 40.4877 75.5382 40.306 77.0231 39.9399C78.525 39.5908 79.832 39.1112 80.9358 38.4954L81.4807 33.4635C80.2414 34.0453 78.9287 34.5079 77.5426 34.857C76.1734 35.189 74.728 35.3565 73.2064 35.3565C71.8034 35.3565 70.629 35.2231 69.689 34.9591C68.763 34.6924 68.0206 34.3291 67.4588 33.8637C66.897 33.3812 66.4933 32.8164 66.2449 32.1693C66.0134 31.5223 65.8976 30.8156 65.8976 30.0521V29.9017H81.5541C81.6529 29.354 81.7263 28.7722 81.7771 28.1592C81.842 27.5291 81.8759 26.9133 81.8759 26.3173V25.446C81.8759 23.238 81.4638 21.345 80.6366 19.767C79.8264 18.1721 78.604 16.9432 76.9695 16.0804H76.9723ZM65.8722 25.6674V25.1452C65.8722 23.4026 66.2759 22.0574 67.0861 21.1094C67.8963 20.1615 69.1498 19.6904 70.852 19.6904C72.0066 19.6904 72.958 19.8976 73.7005 20.3119C74.4429 20.7263 74.9962 21.3422 75.3604 22.1538C75.7246 22.9513 75.9052 23.922 75.9052 25.0685C75.9052 25.2615 75.9052 25.4602 75.9052 25.6674H65.8751H65.8722Z" fill="#0E001C"/>
<path d="M128.399 17.5988C127.589 16.719 126.499 16.0464 125.13 15.5809C123.758 15.0984 122.084 14.86 120.102 14.86C118.764 14.86 117.516 14.9679 116.362 15.1836C115.204 15.3993 114.157 15.6831 113.214 16.0293C112.288 16.3614 111.464 16.719 110.738 17.0993L110.194 22.1794C111.433 21.5976 112.777 21.0924 114.23 20.661C115.701 20.2126 117.268 19.9884 118.936 19.9884C120.901 19.9884 122.313 20.363 123.174 21.1094C123.984 21.8019 124.416 22.8634 124.475 24.2795L118.194 25.1423C115.041 25.5737 112.737 26.3627 111.283 27.5093C109.829 28.6388 109.104 30.3899 109.104 32.7625V33.4606C109.104 35.7027 109.731 37.4282 110.987 38.6401C112.257 39.8519 114.101 40.4593 116.511 40.4593C118.228 40.4593 119.617 40.2095 120.673 39.7129C121.728 39.1992 122.547 38.5181 123.126 37.6695C123.721 36.8067 124.151 35.8503 124.413 34.8059H124.653L124.464 39.886H130.731V24.7932C130.731 23.3146 130.55 21.9694 130.186 20.7575C129.822 19.5286 129.229 18.4757 128.402 17.5959L128.399 17.5988ZM123.518 33.5884C123.021 34.1531 122.386 34.6101 121.61 34.9591C120.834 35.3082 119.902 35.4813 118.809 35.4813C117.587 35.4813 116.686 35.2316 116.108 34.7349C115.546 34.2212 115.267 33.5061 115.267 32.5922V32.3425C115.267 31.4116 115.554 30.7077 116.133 30.2253C116.729 29.7428 117.72 29.4107 119.106 29.2291L124.506 28.4458V31.9196C124.286 32.5241 123.961 33.0832 123.515 33.5884H123.518Z" fill="#0E001C"/>
<path d="M172.159 29.1298C171.597 28.2159 170.696 27.4695 169.46 26.8877C168.221 26.3059 166.578 25.8007 164.531 25.3694C163.128 25.0373 162.038 24.7308 161.262 24.447C160.486 24.149 159.949 23.8169 159.653 23.4508C159.373 23.0847 159.232 22.6533 159.232 22.1567V22.0318C159.232 21.5834 159.365 21.2003 159.627 20.8852C159.893 20.5702 160.33 20.329 160.94 20.1644C161.567 19.9827 162.419 19.8891 163.492 19.8891C165.144 19.8891 166.688 20.0792 168.125 20.4624C169.562 20.8285 170.857 21.2854 172.015 21.8331L171.445 16.753C170.471 16.2393 169.248 15.7994 167.777 15.4333C166.324 15.0502 164.647 14.86 162.75 14.86C159.546 14.86 157.126 15.4504 155.492 16.6282C153.857 17.7889 153.038 19.5258 153.038 21.8331V22.0574C153.038 23.3685 153.295 24.4981 153.806 25.4431C154.317 26.374 155.161 27.1602 156.333 27.8101C157.521 28.4401 159.133 28.9964 161.163 29.4789C162.634 29.8109 163.772 30.1259 164.582 30.4268C165.392 30.7077 165.954 31.0256 166.267 31.3718C166.597 31.7209 166.764 32.1693 166.764 32.7171V32.8675C166.764 33.682 166.408 34.295 165.7 34.7094C164.988 35.1067 163.842 35.3082 162.256 35.3082C160.44 35.3082 158.772 35.0925 157.25 34.6611C155.749 34.2298 154.368 33.7217 153.115 33.1428L153.685 38.6713C154.741 39.1368 156.022 39.5511 157.524 39.9172C159.043 40.3004 160.776 40.4905 162.727 40.4905C166.18 40.4905 168.754 39.869 170.456 38.6231C172.159 37.3772 173.008 35.4927 173.008 32.9697V32.6717C173.008 31.2101 172.729 30.0323 172.167 29.1355L172.159 29.1298Z" fill="#0E001C"/>
<path d="M97.5352 8.06007H84.7271V39.8888H91.1438V30.3246H97.5352C101.383 30.3246 104.2 29.4533 105.982 27.7108C107.783 25.9682 108.683 23.4934 108.683 20.2892V18.0983C108.683 14.8941 107.783 12.4193 105.982 10.6768C104.197 8.93419 101.383 8.06291 97.5352 8.06291V8.06007ZM102.219 20.0906C102.219 21.6856 101.815 22.9059 101.005 23.7517C100.211 24.5832 98.9241 24.9976 97.1399 24.9976H91.1213V13.3672H97.1653C98.9495 13.3672 100.237 13.7816 101.03 14.6131C101.823 15.4277 102.219 16.648 102.219 18.2742V20.0934V20.0906Z" fill="#0E001C"/>
<path d="M148.942 26.8877C147.703 26.3059 146.06 25.8007 144.013 25.3694C142.61 25.0373 141.521 24.7308 140.744 24.447C139.968 24.149 139.432 23.8169 139.135 23.4508C138.856 23.0847 138.714 22.6533 138.714 22.1567V22.0318C138.714 21.5834 138.847 21.2003 139.11 20.8852C139.375 20.5702 139.813 20.329 140.422 20.1644C141.049 19.9827 141.902 19.8891 142.974 19.8891C144.626 19.8891 146.17 20.0792 147.607 20.4624C149.044 20.8285 150.34 21.2854 151.497 21.8331L150.927 16.753C149.953 16.2393 148.731 15.7994 147.26 15.4333C145.806 15.0502 144.129 14.86 142.232 14.86C139.028 14.86 136.609 15.4504 134.974 16.6282C133.339 17.7889 132.521 19.5258 132.521 21.8331V22.0574C132.521 23.3685 132.778 24.4981 133.289 25.4431C133.8 26.374 134.644 27.1602 135.815 27.8101C137.004 28.4401 138.616 28.9964 140.645 29.4789C142.116 29.8109 143.254 30.1259 144.064 30.4268C144.874 30.7077 145.436 31.0256 145.749 31.3718C146.08 31.7209 146.246 32.1693 146.246 32.7171V32.8675C146.246 33.682 145.891 34.295 145.182 34.7094C144.471 35.1067 143.324 35.3082 141.738 35.3082C139.923 35.3082 138.254 35.0925 136.733 34.6611C135.231 34.2298 133.85 33.7217 132.594 33.1428L133.164 38.6713C134.22 39.1368 135.502 39.5511 137.004 39.9172C138.523 40.3004 140.259 40.4905 142.207 40.4905C145.659 40.4905 148.234 39.869 149.936 38.6231C151.635 37.3772 152.488 35.4927 152.488 32.9697V32.6717C152.488 31.2101 152.208 30.0323 151.647 29.1355C151.085 28.2216 150.184 27.4752 148.945 26.8934L148.942 26.8877Z" fill="#0E001C"/>
</g>
<defs>
<clipPath id="clip0_9_2">
<rect width="173" height="48" fill="white"/>
</clipPath>
</defs>
</svg>
